Coordinates
version=1
nRows=9
nColumns=63
inDegrees=yes

Units are S.I. units (second, meters, Newtons, ...)
If the header above contains a line with 'inDegrees', this indicates whether rotational values are in degrees (yes) or radians (no).

endheader
time	pelvis_tilt	pelvis_list	pelvis_rotation	pelvis_tx	pelvis_ty	pelvis_tz	hip_flexion_r	hip_adduction_r	hip_rotation_r	knee_angle_r	knee_angle_r_beta	ankle_angle_r	subtalar_angle_r	mtp_angle_r	hip_flexion_l	hip_adduction_l	hip_rotation_l	knee_angle_l	knee_angle_l_beta	ankle_angle_l	subtalar_angle_l	mtp_angle_l	L5_S1_Flex_Ext	L5_S1_Lat_Bending	L5_S1_axial_rotation	L4_L5_Flex_Ext	L4_L5_Lat_Bending	L4_L5_axial_rotation	L3_L4_Flex_Ext	L3_L4_Lat_Bending	L3_L4_axial_rotation	L2_L3_Flex_Ext	L2_L3_Lat_Bending	L2_L3_axial_rotation	L1_L2_Flex_Ext	L1_L2_Lat_Bending	L1_L2_axial_rotation	L1_T12_Flex_Ext	L1_T12_Lat_Bending	L1_T12_axial_rotation	Abs_r3	Abs_r2	Abs_r1	Abs_t1	Abs_t2	neck_flexion	neck_bending	neck_rotation	arm_flex_r	arm_add_r	arm_rot_r	elbow_flex_r	pro_sup_r	wrist_flex_r	wrist_dev_r	arm_flex_l	arm_add_l	arm_rot_l	elbow_flex_l	pro_sup_l	wrist_flex_l	wrist_dev_l
3.423729	-2.243995	1.431937	81.537356	-0.079243	0.773180	0.687913	1.671420	-4.869957	-7.149983	13.351499	0.233028	30.892003	15.991089	0.000000	-2.723399	2.863132	-15.215820	4.036291	0.070447	28.036534	11.181902	0.000000	-0.049312	-0.750768	0.654930	-0.091577	-0.998521	0.695863	-0.081015	-1.825417	0.695863	-0.056359	-1.825417	0.573063	-0.045791	-1.530966	0.532130	-0.028177	-1.162940	0.491197	-0.352231	-8.492837	3.642522	0.000000	0.000000	7.596634	4.514945	-10.993146	41.355066	-23.632020	-28.648562	123.743191	85.123532	-11.959173	7.021583	11.170977	-22.162251	46.171323	30.299413	88.052516	-20.675236	-4.977599
3.440678	-2.262511	1.505117	81.609571	-0.079008	0.773584	0.687109	1.453002	-4.854297	-7.270133	13.134163	0.229234	30.810918	15.923795	0.000000	-2.873492	2.869607	-15.317254	4.046955	0.070633	27.885988	11.242416	0.000000	-0.061434	-0.769167	0.685973	-0.114090	-1.022993	0.728846	-0.100931	-1.870154	0.728846	-0.070213	-1.870154	0.600226	-0.057048	-1.568486	0.557353	-0.035104	-1.191440	0.514480	-0.438820	-8.700975	3.815175	0.000000	0.000000	7.496715	4.655433	-11.500548	42.690851	-23.375221	-30.543262	124.118651	84.868260	-13.283900	5.226772	10.991131	-22.249789	45.107997	30.719597	88.262000	-21.359832	-5.152766
3.457627	-2.300368	1.574772	81.681937	-0.078788	0.773981	0.686449	1.232551	-4.855538	-7.417907	12.886041	0.224904	30.714773	15.879620	0.000000	-2.996828	2.893055	-15.429372	4.070513	0.071044	27.743341	11.309786	0.000000	-0.074363	-0.788483	0.691810	-0.138100	-1.048682	0.735048	-0.122172	-1.917116	0.735048	-0.084990	-1.917116	0.605333	-0.069054	-1.607874	0.562095	-0.042491	-1.221359	0.518857	-0.531170	-8.919472	3.847637	0.000000	0.000000	7.405150	4.815383	-11.789111	44.006671	-22.997047	-31.891905	124.191228	84.702208	-15.365387	2.751663	10.653464	-22.342003	43.526167	31.271856	88.329927	-21.725035	-5.220348
3.474576	-2.358949	1.637452	81.724114	-0.078560	0.774357	0.685986	1.035327	-4.877946	-7.549646	12.635760	0.220536	30.609568	15.857869	0.000000	-3.084936	2.933814	-15.603927	4.108950	0.071715	27.621164	11.421133	0.000000	-0.087844	-0.809137	0.677495	-0.163135	-1.076152	0.719839	-0.144319	-1.967335	0.719839	-0.100397	-1.967335	0.592808	-0.081572	-1.649992	0.550465	-0.050194	-1.253353	0.508121	-0.627462	-9.153117	3.768025	0.000000	0.000000	7.339934	4.998993	-11.863016	45.278741	-22.533774	-32.588740	123.976881	84.592444	-18.509672	-0.333147	10.180395	-22.456918	41.514560	31.942970	88.309837	-21.788414	-5.184349
3.491525	-2.447765	1.680978	81.741234	-0.078327	0.774689	0.685738	0.875994	-4.929998	-7.662261	12.385911	0.216175	30.498184	15.862528	0.000000	-3.121299	2.998550	-15.847673	4.163656	0.072669	27.522299	11.600921	0.000000	-0.100028	-0.832501	0.649320	-0.185763	-1.107227	0.689902	-0.164337	-2.024143	0.689902	-0.114322	-2.024143	0.568155	-0.092886	-1.697636	0.527572	-0.057156	-1.289544	0.486990	-0.714493	-9.417420	3.611322	0.000000	0.000000	7.293669	5.182672	-11.810262	46.429184	-21.931729	-32.853694	123.584480	84.524227	-21.898989	-3.637271	9.622900	-22.597051	39.213003	32.681895	88.306825	-21.595525	-5.082145
3.508475	-2.560022	1.686173	81.732979	-0.078156	0.774918	0.685676	0.777717	-5.008973	-7.746267	12.147888	0.212021	30.397813	15.906317	0.000000	-3.087620	3.084441	-16.149970	4.235029	0.073915	27.456831	11.815844	0.000000	-0.107328	-0.854984	0.607365	-0.199319	-1.137129	0.645325	-0.176329	-2.078809	0.645325	-0.122665	-2.078809	0.531444	-0.099665	-1.743484	0.493484	-0.061327	-1.324371	0.455524	-0.766634	-9.671755	3.377980	0.000000	0.000000	7.261405	5.317917	-11.594433	47.499734	-21.175942	-32.811329	123.067215	84.437759	-24.738213	-6.802018	8.978772	-22.740112	36.668796	33.467404	88.189055	-21.091309	-4.874261
3.525424	-2.692639	1.664938	81.666164	-0.077945	0.775040	0.685811	0.747808	-5.108470	-7.760845	11.952406	0.208609	30.316770	15.967709	0.000000	-3.007680	3.187929	-16.503269	4.307322	0.075177	27.415549	12.056537	0.000000	-0.112440	-0.878216	0.580427	-0.208811	-1.168027	0.616704	-0.184727	-2.135293	0.616704	-0.128507	-2.135293	0.507874	-0.104411	-1.790857	0.471597	-0.064248	-1.360356	0.435320	-0.803145	-9.934550	3.228162	0.000000	0.000000	7.277504	5.414956	-11.397211	48.377550	-20.293980	-32.648417	122.598786	84.150562	-26.778928	-9.464533	8.428824	-22.900306	34.436266	34.178257	88.195066	-20.674949	-4.727746
3.542373	-2.842950	1.627658	81.571343	-0.077749	0.775044	0.686109	0.763066	-5.230308	-7.730398	11.790252	0.205779	30.264953	16.043706	0.000000	-2.887498	3.307633	-16.884257	4.397701	0.076754	27.405472	12.311522	0.000000	-0.117055	-0.901792	0.568842	-0.217382	-1.199383	0.604394	-0.192309	-2.192617	0.604394	-0.133782	-2.192617	0.497736	-0.108697	-1.838934	0.462184	-0.066885	-1.396875	0.426631	-0.836109	-10.201249	3.163726	0.000000	0.000000	7.341776	5.478462	-11.289740	48.954408	-19.386580	-32.324331	122.290727	83.841438	-27.971427	-11.467715	7.994449	-23.051870	32.576906	34.785354	88.218352	-20.318580	-4.646887
3.559322	-3.000459	1.577251	81.444116	-0.077551	0.774928	0.686541	0.823573	-5.365317	-7.646865	11.672005	0.203715	30.243294	16.139855	0.000000	-2.741563	3.435048	-17.284127	4.491894	0.078398	27.423555	12.571395	0.000000	-0.119939	-0.923063	0.570496	-0.222740	-1.227674	0.606152	-0.197049	-2.244335	0.606152	-0.137079	-2.244335	0.499184	-0.111376	-1.882310	0.463528	-0.068533	-1.429824	0.427872	-0.856716	-10.441871	3.172929	0.000000	0.000000	7.412422	5.498389	-11.144041	49.090511	-18.523422	-31.703835	122.203341	83.560402	-28.260085	-12.726802	7.681723	-23.187644	31.192949	35.254538	88.260831	-20.066469	-4.605171
